<svg><symbol id="clients" xmlns="http://www.w3.org/2000/svg" viewBox="0 0 34 40"><path d="M33.239.898c.095.074.002.352-.216.621-.027.037-.057.072-.085.105-.052.055.02.824.063 1.731a20.301 20.301 0 01-.257 4.215c-.024.158-.051.312-.077.461-.023.119-.04.228-.065.346a22.06 22.06 0 01-.336 1.464c-.215.802-.689 2.132-1.037 2.973-1.026 2.467-2.594 5.163-4.973 7.958-.593.697-.891 1.946-.729 2.841.549 3.047.941 9.69-4.99 13.205-.792.47-1.372.024-1.357-.885.059-4.006-1.428-13.957-17.747-13.656-.925.016-1.482-.65-1.121-1.487 1.145-2.656 4.32-7.772 11.735-7.524.922.031 2.007-.517 2.497-1.287 1.283-2.019 4.072-5.762 8.48-8.435 2.721-1.698 5.22-2.418 6.779-2.724.907-.176 1.68-.259 1.712-.306l.059-.083c.214-.269.466-.43.564-.359l.07.052c.039.028.311-.024.605-.115.295-.092.483.051.421.319-.06.267-.085.503-.053.527l.058.043zm-9.672 10.533c-1.378-.777-3.078-.492-4.083.599a2.975 2.975 0 00-.378.509c-.895 1.509-.345 3.454 1.23 4.345 1.374.779 3.074.492 4.082-.6.137-.152.268-.32.379-.508.895-1.511.341-3.458-1.23-4.345zM7.695 25.333c.78-.487 1.262-.07.91.77-.796 1.902-2.489 5.092-5.416 6.82-.792.467-1.312-.005-.961-.845.759-1.819 2.4-4.827 5.467-6.745zm3.431 2.631c.793-.466 1.279-.055.957.797-.972 2.574-3.376 7.666-7.845 10.089-.808.437-1.33-.031-1.014-.883.917-2.461 3.209-7.234 7.902-10.003zm3.445 2.66c.78-.487 1.261-.07.91.77-.796 1.903-2.49 5.094-5.417 6.824-.792.468-1.311-.004-.96-.846.758-1.818 2.398-4.828 5.467-6.748z"/></symbol><symbol id="branding" xmlns="http://www.w3.org/2000/svg" viewBox="0 0 41 38"><path d="M39.168 32.392H2.281a1.604 1.604 0 01-1.603-1.605V7.525c0-.885.718-1.604 1.603-1.604h23.022l-1.695 2.406H3.084v19.252h35.282V8.327h-6.415l2.211-2.406h5.006c.886 0 1.604.719 1.604 1.604v23.262c0 .886-.718 1.605-1.604 1.605zM18.206 23.31c-3.723 1.541-9.056.337-6.837.319 2.219-.017 2.495-.552 3.218-2.78 1.334-3.517 7.341.921 3.619 2.461zm2.446-4.193c-1.124 1.395-.864 1.333-1.941.465-1.076-.867-1.082-.601.042-1.995L30.136 1.409C31.26.014 33.043-.413 34.12.455c1.077.867 1.038 2.701-.086 4.097L20.652 19.117zm9.82-17.364c.555.444.721.638.721.638s.195-.831 1.745-1.747c0 0-1.635-.249-2.466 1.109zM15.543 36.941c.695-.511.767-1.28.767-1.28l.262-1.665h8.305l.26 1.666s.074.768.769 1.279c.694.513 1.242.951.695 1.024-.529.071-5.508.006-5.876 0-.368.006-5.348.071-5.876 0-.549-.075 0-.513.694-1.024z"/></symbol><symbol id="marketing" xmlns="http://www.w3.org/2000/svg" viewBox="0 0 37 37"><path d="M33.11 37H3.895A3.909 3.909 0 010 33.105V3.894A3.905 3.905 0 013.895-.001H33.11c2.138 0 3.89 1.75 3.89 3.895v29.211C37 35.244 35.248 37 33.11 37zm-.336-31.73H4.225v19.475h28.549V5.27zm1.552 24.95H14.395a3.333 3.333 0 00-3.239-2.567 3.332 3.332 0 00-3.238 2.567H2.676v1.542h5.246a3.326 3.326 0 003.234 2.56 3.326 3.326 0 003.235-2.56h19.935V30.22zm-19.422-8.766h-3.983v-8.223h3.983v8.223zm5.494 0h-3.984V11.048h3.984v10.406zm5.49 0h-3.981V8.093h3.981v13.361z"/></symbol><symbol id="adv" xmlns="http://www.w3.org/2000/svg" viewBox="0 0 37 38"><path d="M34.615 20.156l.023 11.549c.078 1.43-1.025.06-1.025.06s-4.779-8.837-18.754-8.81c0 0-1.321.001-1.321-1.259l-.021-10.931s-.236-1.259 1.239-1.262c0 0 12.504.735 18.549-8.692 0 0 1.273-1.684 1.277-.171l.019 11.574c1.418.761 2.402 2.237 2.402 3.966.004 1.725-.973 3.214-2.388 3.976zm-13.771-9.493c10.652-.108 12.197-7.334 12.197-7.334-3.976 6.18-12.197 7.334-12.197 7.334zm14.128 2.517c1.582 2.32 1.158 4.289 1.158 4.289.966-3.052-1.158-4.289-1.158-4.289zM12.111 23.826c.001 1.061-1.341 2.923-1.341 2.923-.992 2.957 1.5 4.011-.243 5.817C12.844 37.325 8.187 38 8.187 38c-1.596 0-1.346-1.591-1.346-1.591l-.016-9.916c.136-2.514-1.433-2.572-1.433-2.572-3.789.005-3.95-4.053-3.956-4.542a3.292 3.292 0 01-1.439-2.72c0-1.127.568-2.12 1.431-2.712v-.11c-.007-3.985 4.109-4.172 4.109-4.172l5.206-.009c1.683-.004 1.432 1.503 1.428 1.507l-.06 12.663z"/></symbol><symbol id="lamp" xmlns="http://www.w3.org/2000/svg" viewBox="0 0 19 25"><path d="M15.833 9.375c0 3.125-3.166 6.201-3.166 9.375H6.333c0-3.076-3.166-6.25-3.166-9.375 0-3.452 2.835-6.25 6.333-6.25 3.497 0 6.333 2.798 6.333 6.25zm-3.958 12.5h-4.75a.786.786 0 00-.792.781c0 .432.354.781.792.781h.145A2.364 2.364 0 009.5 25a2.364 2.364 0 002.23-1.563h.145a.786.786 0 00.792-.781.786.786 0 00-.792-.781zm0-2.344h-4.75a.786.786 0 00-.792.781c0 .432.354.782.792.782h4.75c.438 0 .792-.35.792-.782a.786.786 0 00-.792-.781zM.877 5.365l1.421.808c.219-.479.487-.927.796-1.35L1.668 4.01.877 5.365zm9.415-3.724V0H8.708v1.641c.265-.027.52-.079.792-.079s.527.052.792.079zm-4.036.626L5.436.865l-1.373.781.825 1.407a7.907 7.907 0 011.368-.786zm11.867 3.098l-.791-1.355-1.426.813c.309.423.578.871.798 1.35l1.419-.808zm-3.188-3.719l-1.37-.781-.82 1.402c.484.217.941.481 1.367.785l.823-1.406zM1.583 9.375c0-.269.053-.521.081-.781H0v1.562h1.667c-.031-.259-.084-.516-.084-.781zm15.753-.781c.028.26.081.512.081.781 0 .265-.053.522-.084.781H19V8.594h-1.664zM16.036 14l1.296.738.791-1.353-1.438-.818A22.71 22.71 0 0116.036 14zM.877 13.385l.791 1.353 1.285-.731a21.897 21.897 0 01-.644-1.437l-1.432.815z"/></symbol><symbol id="monitor" xmlns="http://www.w3.org/2000/svg" viewBox="0 0 23 21"><path d="M21.61 17.596H1.394a1.416 1.416 0 01-1.402-1.421V1.425c0-.78.63-1.422 1.402-1.422H21.61c.771 0 1.401.642 1.401 1.422v14.75c0 .78-.63 1.421-1.401 1.421zm-.353-15.599H1.745v13.132h19.512V1.997zM4.725 10.594c.196 0 .368.075.518.18l4.303-3.397a.96.96 0 01-.064-.327c0-.525.419-.951.937-.951s.938.426.938.951a.956.956 0 01-.065.326l2.334 2.013a.912.912 0 01.574-.218c.187 0 .351.069.497.164l2.375-2.176a.944.944 0 01.867-1.305c.518 0 .938.426.938.952 0 .525-.42.951-.938.951a.905.905 0 01-.428-.118l-2.424 2.22c.024.085.052.17.052.263a.946.946 0 01-.939.953.945.945 0 01-.938-.953c0-.057.022-.107.032-.161L10.87 7.869a.907.907 0 01-.451.133.903.903 0 01-.53-.188c-.965.755-3.082 2.483-4.28 3.463.026.087.053.173.053.268 0 .525-.42.951-.937.951a.945.945 0 01-.938-.951c0-.525.42-.951.938-.951zm9.408 7.678l2.646 2.727H6.262l2.645-2.727h5.226z"/></symbol><symbol id="brain" xmlns="http://www.w3.org/2000/svg" viewBox="0 0 22 25"><path d="M21.884 15.24c-.699.769-1.889.798-1.889.798s.773 1.463.426 1.868c-.348.406-1.312.232-1.312.232s.896.646.896 1.146c0 .5-1.515 1.167-1.515 1.167s.278 2.772-1.999 2.58c-2.275-.193-2.657-.833-2.657-.833l-.674 2.801H4.352l.309-6.091S-.748 13.05.103 7.81C.53 5.718.258 1.335 7.52.18c7.262-1.158 13.805 2.519 12.16 10.554 0 1.465 2.905 3.739 2.204 4.506zm-8.609-7.381l-1.015-.586a3.633 3.633 0 00-.071-.573l.805-.687V5.09l-1.322-1.538h-.927l-.657.563c-.24-.116-.49-.21-.754-.281-.022-.26-.063-.781-.063-.781l-.655-.654-2.023.163-.655.653.084 1.029a4.081 4.081 0 00-.56.38l-.853-.39-.896.235-.847 1.841-.031.126.265.769.991.452c.015.217.048.429.103.635l-.757.639v.924L4.749 11.4s.763.09.804.068l.123-.068.719-.607c.202.09.413.167.633.225l.073.814.656.653 2.02-.184.655-.654-.095-1.05c.165-.094.324-.196.472-.311.264.15.79.454.79.454l.896-.235 1.015-1.753-.235-.893zm2.57 7.434l-.652-.375a2.242 2.242 0 00-.044-.368l.515-.441v-.593l-.848-.987h-.595l-.421.361a2.884 2.884 0 00-.484-.18l-.04-.501-.42-.419-1.298.105-.419.418.053.661a2.458 2.458 0 00-.359.243l-.547-.249-.576.15-.543 1.18-.019.082.17.493.636.289c.01.14.031.275.066.408l-.485.41v.592l.841.993s.49.058.516.043l.078-.043.462-.39c.129.057.263.108.404.145l.048.522.42.42 1.295-.119.419-.418-.061-.674c.107-.061.209-.125.304-.2l.507.291.574-.15.653-1.125-.15-.574zm-3.344 1.04a1.307 1.307 0 110-2.612 1.307 1.307 0 110 2.612zM8.063 9.479a2.04 2.04 0 01-2.042-2.036 2.04 2.04 0 012.042-2.037c1.128 0 2.042.911 2.042 2.037a2.04 2.04 0 01-2.042 2.036z"/></symbol><symbol id="like" xmlns="http://www.w3.org/2000/svg" viewBox="0 0 23 21"><path d="M22.939 8.941l-1.726 9.217c-.043.228-.073.602-.12.829C20.855 20.13 19.67 21 18.509 21h-8.175c-.474 0-.914-.149-1.282-.4-.187-.128-.475-.355-.666-.476-.702-.445-1.505-.959-2.738-1.053a2.087 2.087 0 01-.76-.221l-1.172-.681a.797.797 0 01-.354-.626V9.272a.64.64 0 01.382-.562l2.722-1.011c.211-.079.544-.228.741-.339.968-.547 3.65-2.183 5.047-4.217C13.327 1.579 14.386 0 15.116 0c.443 0 .765.579.898 2.09.16 1.816-.14 2.882-.668 3.675-.126.192-.064.334.16.334h5.16c1.16 0 2.124.869 2.315 2.012.039.228.001.602-.042.83zM2.166 18.967H.677a.688.688 0 01-.677-.7V8.611c0-.387.303-.7.677-.7h1.489c.374 0 .677.313.677.7v9.656c0 .387-.303.7-.677.7z"/></symbol><symbol id="quotes" xmlns="http://www.w3.org/2000/svg" viewBox="0 0 34 29"><path d="M34.005 15.711v13.284H18.218V15.711C18.218 5.688 20.649.005 29.15.005v8.094c-3.643 0-3.643.726-3.643 5.075v2.537h8.498zm-34.011 0C-.006 5.688 2.427.005 10.929.005v8.093c-3.644 0-3.644.726-3.644 5.075v2.538h8.506v13.284H-.006V15.711z"/></symbol></svg>