<svg xmlns="http://www.w3.org/2000/svg" width="47" height="32"><path fill-rule="evenodd" opacity=".2" fill="#FFF" d="M.005 15.553c0 8.17 4.023 16.44 11.713 16.44h19.587c8.653 0 15.692-7.177 15.692-15.999 0-8.823-7.039-15.999-15.692-15.999H11.718C3.67-.005.005 8.059.005 15.553zm2.954 0c0-6.245 2.708-12.547 8.759-12.547h7.369c4.117 10.975 1.017 22.621-.048 25.976h-7.321c-5.689 0-8.759-6.919-8.759-13.429zm41.084.441c0 7.161-5.714 12.988-12.738 12.988h-9.161c.797-2.69 2.005-7.752 2.005-13.736 0-3.831-.502-8.04-1.92-12.24h9.076c7.024 0 12.738 5.826 12.738 12.988zM17.09 17.311H6.382c-.815 0-1.476-.674-1.476-1.506 0-.831.661-1.506 1.476-1.506H17.09c.815 0 1.477.675 1.477 1.506 0 .832-.661 1.506-1.477 1.506z"/></svg>